<?xml version="1.0" standalone="no"?>
<!DOCTYPE svg PUBLIC "-//W3C//DTD SVG 20010904//EN"
 "http://www.w3.org/TR/2001/REC-SVG-20010904/DTD/svg10.dtd">
<svg version="1.0" xmlns="http://www.w3.org/2000/svg"
 width="900.000000pt" height="1950.000000pt" viewBox="0 0 900.000000 1950.000000"
 preserveAspectRatio="xMidYMid meet">
<metadata>
Created by potrace 1.10, written by Peter Selinger 2001-2011
</metadata>
<g transform="translate(0.000000,1950.000000) scale(0.100000,-0.100000)"
fill="#171617" stroke="none">
<path d="M7729 11795 c-3 -3 -1711 -5 -3795 -5 -2084 0 -3822 -3 -3861 -6
l-73 -7 0 -53 0 -54 4500 0 4500 0 0 60 0 59 -611 1 c-335 0 -620 2 -632 5
-13 4 -25 3 -28 0z"/>
<path d="M4790 11386 c0 -41 5 -78 10 -81 6 -4 10 21 10 69 0 41 -4 78 -10 81
-6 4 -10 -21 -10 -69z"/>
<path d="M3105 11438 c-22 -5 -72 -13 -112 -18 -39 -4 -87 -13 -105 -18 -18
-6 -58 -15 -88 -22 -30 -6 -66 -13 -80 -16 -32 -6 -126 -33 -165 -46 -16 -6
-48 -14 -70 -18 -22 -4 -56 -13 -75 -20 -19 -7 -51 -19 -70 -25 -19 -7 -84
-29 -145 -49 -162 -52 -212 -69 -295 -101 -25 -9 -61 -23 -80 -30 -19 -7 -51
-18 -70 -25 -19 -7 -62 -16 -94 -19 -48 -5 -63 -11 -79 -33 -13 -18 -18 -34
-13 -52 8 -31 63 -96 81 -96 7 0 18 -7 25 -15 19 -23 107 -19 181 8 56 21 167
66 277 113 72 31 99 42 142 59 25 9 59 23 75 30 81 34 127 50 265 89 30 8 72
20 94 27 82 25 187 47 331 69 39 7 93 18 120 26 37 10 119 15 305 16 l255 1
58 -28 c82 -39 100 -73 73 -135 -20 -49 75 -74 116 -31 67 72 -4 208 -144 277
-97 48 -137 64 -162 64 -13 0 -40 7 -59 15 -29 12 -80 15 -244 14 -114 -1
-226 -6 -248 -11z"/>
<path d="M6063 11309 c-28 -18 -73 -85 -73 -109 0 -5 -20 -53 -45 -106 -25
-53 -45 -100 -45 -105 0 -6 -13 -37 -30 -71 -16 -33 -30 -64 -30 -68 0 -5 -20
-51 -45 -104 -38 -82 -44 -102 -42 -154 0 -33 -4 -66 -10 -73 -6 -8 -37 -75
-68 -149 -32 -74 -68 -158 -81 -187 -13 -28 -24 -54 -24 -57 0 -2 -16 -39 -35
-80 -31 -68 -38 -76 -62 -76 -16 0 -41 9 -58 20 -19 12 -47 20 -74 20 -40 0
-49 -5 -87 -46 -24 -25 -52 -65 -63 -88 -12 -23 -32 -57 -46 -76 -14 -19 -25
-37 -25 -41 0 -4 -19 -36 -43 -71 -24 -35 -46 -70 -50 -78 -4 -8 -16 -28 -26
-45 -11 -16 -20 -41 -20 -55 0 -42 32 -94 69 -112 70 -34 170 -78 179 -78 5 0
22 -6 38 -14 15 -8 44 -21 63 -30 19 -8 74 -33 122 -55 91 -43 116 -48 165
-31 41 15 70 57 89 132 32 128 73 276 87 313 5 17 12 58 14 91 4 60 4 62 -33
98 -20 20 -42 36 -49 36 -7 0 -26 7 -43 16 -29 14 -32 20 -32 59 0 25 6 47 15
55 8 6 17 22 21 33 4 12 19 49 34 82 15 33 60 137 100 231 55 132 79 177 101
193 28 21 43 47 84 146 23 56 39 92 69 153 14 30 26 59 26 65 0 7 7 26 16 42
8 17 32 68 52 115 19 47 42 94 49 105 30 45 6 119 -50 154 -43 26 -63 26 -104
0z m77 -151 c39 24 41 7 5 -32 -33 -36 -76 -35 -92 1 -7 15 -13 35 -13 46 0
17 2 17 40 -4 34 -19 44 -21 60 -11z m-90 -127 c0 -19 -31 -81 -40 -81 -14 0
-13 7 7 52 15 35 33 51 33 29z m-64 -170 c-8 -13 -36 -15 -36 -3 0 4 5 13 12
20 14 14 34 0 24 -17z m-26 -76 c-15 -28 -30 -33 -30 -9 0 28 21 57 33 45 8
-8 7 -18 -3 -36z m-57 -114 c-3 -14 -9 -30 -14 -35 -13 -14 -23 22 -11 37 6 7
9 24 6 38 -5 23 -5 23 10 5 10 -12 13 -29 9 -45z m-343 -736 c0 -8 -7 -15 -15
-15 -16 0 -20 12 -8 23 11 12 23 8 23 -8z m-65 -30 c88 -4 91 -5 115 -37 14
-18 46 -55 73 -83 45 -47 47 -52 47 -107 0 -54 -26 -170 -47 -214 -6 -10 -21
-41 -34 -69 -13 -27 -32 -62 -43 -78 -19 -26 -23 -27 -83 -22 -35 2 -76 11
-93 20 -16 8 -34 15 -40 15 -6 0 -49 18 -95 40 -46 22 -93 40 -104 40 -21 0
-27 5 -85 69 l-28 32 21 58 c11 32 21 65 21 74 0 8 7 22 15 30 8 8 32 50 55
94 60 119 123 170 183 151 18 -5 73 -11 122 -13z"/>
<path d="M5297 9823 c-13 -21 -32 -63 -42 -93 -11 -30 -25 -62 -32 -71 -7 -8
-13 -22 -13 -30 0 -8 -10 -32 -22 -55 -24 -47 -20 -69 17 -86 29 -13 40 -5 51
42 8 29 52 128 99 221 l34 66 -23 22 c-31 29 -42 27 -69 -16z"/>
<path d="M5463 9784 c-6 -3 -19 -31 -29 -62 -9 -31 -23 -64 -31 -73 -7 -8 -13
-23 -13 -33 0 -9 -12 -22 -27 -28 -16 -7 -30 -13 -32 -15 -3 -2 -5 -31 -5 -64
-1 -55 2 -63 26 -80 l26 -19 21 34 c12 18 21 39 21 46 0 14 32 87 86 194 19
37 34 70 34 72 0 4 -57 35 -62 33 -2 0 -8 -3 -15 -5z"/>
<path d="M5594 9683 c-8 -21 -25 -60 -35 -88 -11 -27 -36 -82 -55 -121 -38
-80 -40 -87 -21 -102 25 -21 77 17 99 73 11 28 33 79 50 115 17 36 35 75 40
86 8 16 6 28 -7 48 -25 38 -52 33 -71 -11z"/>
<path d="M4791 11213 c0 -32 4 -67 8 -78 7 -18 8 -17 13 5 3 14 4 45 2 70 -1
25 -3 48 -3 53 -1 4 -5 7 -11 7 -6 0 -10 -25 -9 -57z"/>
<path d="M3175 11188 c-3 -7 -13 -40 -24 -73 -18 -56 -66 -173 -113 -275 -21
-46 -34 -74 -63 -145 -10 -22 -39 -85 -66 -140 -60 -125 -129 -285 -129 -301
0 -6 -7 -25 -15 -40 -22 -43 -19 -142 5 -182 38 -62 69 -81 131 -82 47 0 63 5
99 31 24 17 54 43 67 58 61 67 86 90 94 85 5 -3 9 -26 9 -51 0 -41 5 -51 40
-85 37 -35 46 -38 97 -38 50 0 109 22 133 50 13 15 58 38 64 33 10 -11 7 -36
-8 -52 -40 -45 -137 -261 -156 -349 -17 -73 0 -129 52 -182 30 -29 50 -41 84
-46 62 -9 70 1 56 69 -6 30 -8 65 -6 78 8 36 48 128 95 219 18 36 51 101 73
144 23 44 46 81 52 83 6 2 28 -8 50 -23 37 -26 42 -26 144 -21 118 6 144 13
280 76 37 17 135 89 185 136 31 28 74 49 83 40 3 -3 0 -5 -6 -5 -7 0 -12 -9
-12 -19 0 -11 -13 -39 -29 -63 -38 -57 -138 -266 -176 -368 -9 -25 -23 -60
-31 -78 -20 -47 -18 -126 5 -171 34 -66 111 -111 166 -97 28 7 33 37 13 81 -9
20 -9 37 0 73 15 58 67 182 102 242 14 25 42 77 61 117 38 80 51 87 107 53 60
-37 217 -23 362 32 93 35 231 128 312 209 76 76 208 244 208 264 0 2 11 21 25
41 39 57 29 104 -20 104 -26 0 -43 -19 -76 -80 -65 -123 -294 -380 -338 -380
-30 0 -26 14 23 89 104 157 143 338 96 443 -11 25 -25 50 -32 55 -22 16 -102
43 -129 43 -46 0 -142 -84 -189 -165 -26 -45 -54 -75 -70 -75 -13 0 -13 47 0
55 20 12 10 54 -20 84 -39 39 -110 74 -141 69 -21 -3 -25 -10 -29 -53 -7 -61
-26 -114 -62 -178 -16 -26 -28 -50 -28 -53 0 -3 -4 -10 -10 -17 -5 -7 -31 -39
-57 -71 -82 -102 -212 -226 -237 -226 -12 0 -25 3 -29 6 -5 5 33 64 73 111 5
6 26 51 47 100 34 83 37 94 37 199 1 105 0 112 -26 146 -28 37 -99 68 -155 68
-41 0 -130 -83 -183 -170 -23 -39 -48 -69 -54 -67 -7 3 -10 25 -8 57 2 32 -2
58 -10 68 -27 32 -119 83 -146 80 -24 -3 -28 -10 -42 -73 -9 -38 -22 -83 -28
-100 -30 -75 -48 -113 -72 -155 -15 -25 -29 -52 -33 -60 -5 -8 -13 -24 -20
-35 -101 -165 -216 -295 -261 -295 -22 0 -26 4 -26 30 0 42 30 111 193 449 50
104 40 143 -53 200 -57 35 -100 24 -100 -26 0 -26 -47 -133 -113 -254 -44 -83
-168 -251 -236 -321 -71 -75 -115 -58 -80 29 34 84 78 179 189 408 94 195 101
210 144 306 43 95 58 142 63 189 4 40 1 49 -26 76 -29 30 -108 74 -131 74 -6
0 -13 -6 -15 -12z m1045 -547 c0 -17 -4 -32 -9 -35 -5 -3 -12 -21 -15 -41 -9
-44 -59 -172 -98 -249 -49 -98 -97 -167 -155 -223 -49 -48 -58 -53 -98 -53
-39 0 -45 3 -51 25 -4 17 0 35 12 53 10 15 23 34 29 44 118 194 267 415 313
466 47 50 72 55 72 13z m878 -4 c6 -52 -98 -315 -163 -411 -14 -20 -25 -40
-25 -44 0 -10 -92 -105 -120 -125 -33 -23 -83 -22 -104 2 -17 18 -16 21 11 63
15 23 32 51 38 60 101 171 255 398 309 456 35 37 50 37 54 -1z m-318 -127 c0
-21 -36 -97 -50 -105 -5 -3 -27 -39 -50 -80 -23 -41 -46 -77 -51 -81 -5 -3 -7
-14 -4 -23 3 -10 -1 -24 -10 -31 -8 -7 -15 -18 -15 -24 -1 -14 -46 -66 -58
-66 -5 0 -12 19 -15 41 -6 48 30 145 58 155 9 4 26 21 38 39 48 71 95 141 111
168 19 31 46 36 46 7z m-905 -55 c-18 -37 -42 -61 -51 -52 -9 8 16 79 34 100
26 29 37 -4 17 -48z m-194 -343 c-12 -48 -59 -102 -87 -102 -20 0 -18 21 10
83 43 98 102 112 77 19z"/>
<path d="M6950 11163 c-12 -32 -28 -70 -42 -96 -82 -161 -83 -166 -17 -218 28
-22 52 -32 77 -33 34 -1 37 1 42 34 5 32 71 164 106 215 36 52 -12 105 -109
119 -45 7 -47 6 -57 -21z"/>
<path d="M3540 11087 c-18 -19 -39 -51 -48 -73 -21 -54 -27 -131 -12 -149 32
-39 162 3 210 67 26 35 30 98 9 124 -21 25 -86 64 -107 64 -11 0 -34 -15 -52
-33z"/>
<path d="M4790 11023 c0 -52 16 -77 25 -40 8 31 -1 77 -15 77 -6 0 -10 -17
-10 -37z"/>
<path d="M2450 11010 c0 -11 -54 -123 -114 -235 -30 -55 -52 -84 -72 -94 -16
-7 -42 -20 -57 -27 -16 -8 -33 -14 -37 -14 -18 0 -136 -74 -162 -102 -50 -51
-29 -95 42 -85 22 3 51 14 66 26 15 12 37 21 50 21 33 0 31 -28 -5 -82 -29
-44 -85 -159 -116 -238 -9 -25 -24 -61 -32 -80 -8 -20 -15 -63 -14 -102 0 -55
6 -77 33 -128 44 -85 104 -134 166 -134 54 -1 63 15 37 66 -24 47 -45 118 -45
153 0 59 61 199 186 430 18 33 46 87 62 120 17 34 36 66 44 72 20 16 120 31
248 38 63 3 125 11 137 17 27 13 44 67 36 112 -13 68 -88 93 -180 61 -53 -18
-125 -23 -130 -9 -2 6 6 21 17 34 13 15 20 37 20 65 0 45 -16 65 -80 104 -36
21 -100 29 -100 11z m78 -257 c3 -29 0 -33 -22 -33 -14 0 -28 -4 -31 -10 -14
-23 -26 -9 -20 23 10 42 24 59 49 55 16 -2 22 -11 24 -35z m-228 -218 c0 -8
-7 -15 -15 -15 -16 0 -20 12 -8 23 11 12 23 8 23 -8z"/>
<path d="M6504 10698 c-33 -35 -76 -83 -95 -108 -18 -25 -36 -47 -40 -50 -3
-3 -11 -15 -18 -27 -7 -15 -21 -23 -36 -23 -14 0 -25 2 -25 4 0 3 11 26 25 52
31 58 32 91 2 126 -26 31 -93 68 -124 68 -32 0 -53 -27 -53 -67 0 -24 -27 -90
-84 -207 -111 -226 -119 -247 -123 -343 l-4 -82 45 -45 c49 -48 101 -65 137
-46 22 12 22 12 3 101 -4 19 5 41 40 92 25 37 67 97 92 135 26 37 50 69 53 72
4 3 21 25 38 50 52 76 89 114 106 107 17 -6 13 -40 -7 -67 -12 -16 -72 -137
-102 -205 -25 -58 -24 -170 1 -213 62 -104 190 -96 301 20 38 39 119 151 137
188 4 8 23 42 41 75 19 33 44 80 56 105 12 25 26 52 31 60 5 8 16 31 24 50 20
44 7 80 -28 80 -24 0 -67 -37 -67 -58 0 -20 -128 -261 -187 -352 -92 -142
-153 -190 -153 -120 0 37 30 111 121 295 38 77 69 146 69 152 0 6 6 16 14 22
16 14 26 67 19 104 -3 16 -26 48 -50 72 -63 63 -83 61 -159 -17z"/>
<path d="M1375 10639 c-2 -8 -1 -43 3 -79 l8 -65 8 69 c5 45 4 72 -3 79 -7 7
-12 6 -16 -4z"/>
<path d="M1380 10370 c0 -16 5 -30 10 -30 6 0 10 14 10 30 0 17 -4 30 -10 30
-5 0 -10 -13 -10 -30z"/>
<path d="M1380 10206 c0 -20 5 -36 10 -36 6 0 10 13 10 29 0 17 -4 33 -10 36
-6 4 -10 -8 -10 -29z"/>
<path d="M1500 9760 c0 -5 7 -10 15 -10 8 0 15 5 15 10 0 6 -7 10 -15 10 -8 0
-15 -4 -15 -10z"/>
<path d="M2546 9560 c-10 -147 -4 -530 9 -530 13 0 19 558 7 603 -7 26 -10 12
-16 -73z"/>
<path d="M4797 9644 c-10 -11 -8 -52 3 -59 13 -8 25 44 13 56 -5 5 -12 6 -16
3z"/>
<path d="M7036 9613 c-11 -11 -6 -23 9 -23 8 0 15 4 15 9 0 13 -16 22 -24 14z"/>
<path d="M296 9524 c-3 -9 -2 -23 4 -32 7 -14 9 -10 10 16 0 35 -5 41 -14 16z"/>
<path d="M4797 9265 c-6 -49 -4 -149 4 -225 6 -50 15 158 10 215 l-7 70 -7
-60z"/>
<path d="M2430 8891 c-14 -4 -40 -11 -58 -16 -21 -5 -46 -23 -67 -50 l-35 -42
0 -279 c0 -243 2 -283 17 -304 30 -45 67 -80 84 -80 25 0 34 -19 13 -27 -25
-9 -84 27 -116 71 l-28 39 0 263 c0 237 -6 304 -24 258 -3 -9 -6 -136 -6 -282
0 -252 1 -270 21 -306 28 -53 53 -71 121 -90 67 -19 114 -21 124 -5 3 6 37 31
75 55 107 70 112 80 120 263 3 86 4 159 2 164 -2 4 -47 7 -99 7 l-95 0 3 -52
c3 -49 5 -53 28 -54 62 -2 60 1 60 -69 0 -46 -6 -76 -20 -102 -24 -45 -35 -53
-83 -53 -31 0 -40 5 -57 33 -18 30 -20 50 -20 267 1 217 2 237 20 258 26 32
79 39 109 15 17 -14 23 -30 24 -63 l2 -45 63 -3 c75 -4 80 4 63 83 -16 69 -63
119 -133 140 -55 16 -68 17 -108 6z"/>
<path d="M3945 8890 c-57 -14 -81 -28 -113 -64 -30 -34 -32 -42 -32 -108 0
-81 14 -110 90 -193 26 -27 67 -72 91 -100 24 -27 50 -54 57 -58 6 -4 12 -17
12 -28 0 -11 4 -29 10 -39 7 -13 5 -29 -5 -54 -37 -87 -135 -61 -135 36 0 42
-12 52 -72 61 -29 4 -40 2 -47 -11 -12 -24 2 -124 19 -146 30 -35 62 -61 82
-66 33 -8 34 -30 2 -30 -63 0 -134 84 -134 159 0 30 -4 41 -15 41 -12 0 -15
-14 -15 -66 0 -102 31 -143 134 -177 74 -25 136 -21 136 9 0 8 5 14 11 14 6 0
24 11 41 25 16 14 35 25 43 25 7 0 29 18 49 40 34 37 36 44 36 105 0 70 -18
118 -61 166 -13 14 -40 45 -60 70 -20 24 -55 64 -78 88 -58 63 -71 86 -71 127
0 25 7 43 22 55 44 39 112 13 106 -39 -4 -35 -26 -39 -38 -8 -6 17 -14 24 -25
20 -14 -6 -13 -11 5 -41 11 -19 20 -42 20 -52 0 -27 19 -39 70 -43 35 -2 45 0
45 12 0 11 -9 14 -34 12 -37 -3 -51 9 -51 46 0 27 16 29 30 2 9 -16 21 -20 65
-20 l55 0 0 50 c0 36 -7 61 -24 88 -33 53 -54 68 -115 86 -59 17 -62 18 -106
6z"/>
<path d="M4626 8881 c-66 -23 -105 -70 -113 -138 -9 -78 2 -116 47 -161 46
-46 49 -57 18 -73 -34 -18 -51 -38 -70 -82 -40 -88 -6 -215 75 -280 l41 -32
180 -7 c100 -3 190 -8 201 -10 35 -6 28 30 -15 79 -49 56 -110 178 -110 220 0
43 17 53 86 53 66 0 79 8 69 40 -5 17 -15 20 -65 20 -76 0 -120 -32 -120 -87
0 -19 -4 -33 -8 -31 -17 6 -82 86 -82 99 0 8 20 27 45 42 24 16 58 46 75 67
27 34 30 45 30 110 0 69 -2 75 -35 116 -57 69 -150 90 -249 55z m125 -112 c18
-18 21 -30 17 -83 -7 -108 -65 -152 -107 -80 -27 46 -29 134 -3 156 37 33 65
35 93 7z m4 -336 c16 -27 32 -52 34 -58 2 -5 7 -12 10 -15 18 -14 101 -128
101 -138 0 -9 -30 -12 -103 -12 -95 0 -106 2 -132 24 -26 23 -28 30 -29 100
-1 73 1 77 34 111 19 19 39 35 45 35 5 0 24 -21 40 -47z"/>
<path d="M5483 8883 c-37 -11 -63 -27 -88 -54 -33 -37 -35 -43 -35 -110 0 -82
14 -111 90 -194 26 -27 67 -72 91 -100 24 -27 49 -54 54 -60 6 -5 16 -26 23
-46 23 -67 -25 -138 -83 -123 -34 9 -55 41 -55 86 0 42 -7 48 -64 59 -57 10
-66 0 -59 -69 8 -75 51 -137 107 -152 33 -9 31 -30 -3 -30 -60 0 -131 89 -131
163 0 42 -15 56 -29 28 -27 -49 -8 -134 40 -182 64 -64 229 -95 229 -43 0 8 6
14 14 14 7 0 20 7 27 17 8 9 29 22 47 30 17 7 46 32 62 55 53 72 37 175 -41
270 -51 63 -129 151 -148 168 -53 48 -67 120 -31 158 40 43 110 20 110 -36 0
-15 8 -37 18 -50 15 -20 26 -23 68 -20 l49 3 3 42 c3 46 -21 104 -60 140 -21
19 -116 54 -142 52 -6 0 -35 -8 -63 -16z"/>
<path d="M8086 8881 c-32 -11 -61 -31 -82 -57 -31 -35 -34 -45 -34 -104 0 -48
6 -76 21 -105 12 -22 24 -42 28 -45 27 -21 201 -220 201 -229 0 -6 5 -20 11
-30 28 -44 -30 -128 -79 -117 -39 10 -62 42 -62 86 0 45 -11 56 -67 63 -52 6
-57 -1 -54 -67 3 -70 55 -148 105 -158 31 -5 32 -28 1 -28 -59 0 -127 77 -135
153 -7 68 -24 63 -28 -8 -5 -102 31 -154 132 -188 88 -30 106 -26 186 47 8 7
24 16 36 20 12 4 37 23 58 43 35 35 36 39 36 110 0 69 -3 79 -36 128 -19 30
-72 94 -116 142 -44 48 -89 102 -99 118 -27 42 -25 100 3 119 45 32 108 11
108 -35 0 -11 7 -33 15 -49 14 -28 20 -30 70 -30 l55 0 0 59 c0 53 -3 62 -39
102 -29 33 -53 49 -93 62 -66 21 -79 20 -142 -2z"/>
<path d="M1198 8874 c-3 -2 -3 -147 -1 -322 4 -254 8 -324 20 -350 19 -42 48
-73 79 -81 31 -8 31 -25 0 -29 -28 -4 -106 60 -106 87 0 9 -7 25 -15 35 -12
16 -15 71 -15 313 0 259 -2 293 -16 293 -13 0 -15 -35 -14 -307 2 -346 8 -385
63 -427 40 -31 111 -56 158 -56 26 0 45 9 75 35 21 19 54 42 71 50 18 9 44 30
57 48 l25 33 3 339 3 340 -56 3 c-37 2 -59 -1 -66 -10 -6 -8 -6 -61 -1 -148 5
-74 7 -213 6 -307 -3 -162 -4 -174 -25 -194 -26 -27 -77 -29 -101 -5 -15 15
-17 48 -20 281 -2 146 1 288 6 315 8 43 7 52 -7 59 -17 9 -116 13 -123 5z"/>
<path d="M1739 8870 c0 -3 -1 -171 0 -375 l0 -370 57 -8 c74 -11 80 -4 66 70
-16 82 -19 220 -5 234 17 17 53 6 68 -21 13 -24 49 -104 66 -145 4 -11 14 -36
23 -55 8 -19 16 -44 18 -55 3 -17 14 -21 67 -28 35 -4 68 -4 73 1 4 4 -5 35
-22 67 -58 119 -110 236 -110 249 0 7 11 18 25 24 13 6 36 30 51 54 37 58 46
194 18 253 -42 90 -71 102 -247 107 -81 1 -147 1 -148 -2z m261 -119 c34 -28
35 -31 35 -99 0 -61 -3 -74 -25 -97 -22 -23 -30 -26 -85 -23 l-60 3 -7 105
c-7 124 0 140 66 140 31 0 50 -7 76 -29z"/>
<path d="M1920 8726 c0 -7 7 -19 14 -26 8 -6 20 -28 26 -48 22 -72 20 -69 31
-50 12 22 -4 93 -27 119 -20 22 -44 25 -44 5z"/>
<path d="M2812 8870 c-4 -3 -6 -172 -4 -377 l3 -371 157 -4 c86 -2 161 -1 165
3 12 9 15 66 5 81 -5 9 -35 12 -108 9 l-100 -3 0 137 0 138 76 -7 75 -7 -3 53
-3 53 -73 -4 -73 -3 3 103 3 104 94 -2 c67 -2 97 1 103 10 13 20 9 87 -4 88
-58 4 -311 3 -316 -1z"/>
<path d="M3255 8872 c-13 -3 -15 -9 -9 -25 5 -12 10 -180 11 -373 l4 -352 51
-6 c28 -4 55 -3 60 2 4 4 3 64 -3 136 -12 143 -8 176 20 176 28 0 51 -11 51
-24 0 -6 9 -28 20 -49 11 -20 20 -46 20 -57 0 -11 5 -20 10 -20 6 0 10 -6 10
-12 0 -7 6 -25 14 -40 8 -15 17 -40 21 -57 3 -16 12 -34 18 -39 18 -15 124
-25 131 -13 4 6 -4 32 -18 58 -13 26 -36 75 -51 108 -15 33 -36 78 -47 100
l-21 41 51 52 c47 48 51 56 57 117 14 129 -10 207 -80 252 -28 19 -50 22 -167
25 -75 2 -143 1 -153 0z m246 -109 c36 -22 42 -43 37 -134 -5 -89 -17 -101
-103 -97 l-60 3 -3 100 c-4 140 -2 145 54 145 26 0 59 -8 75 -17z"/>
<path d="M3426 8728 c4 -7 15 -22 25 -33 10 -11 19 -40 21 -65 4 -58 22 -58
26 -1 5 62 -3 86 -33 99 -34 15 -48 15 -39 0z"/>
<path d="M5888 8869 c-10 -5 -18 -15 -18 -21 0 -6 -6 -19 -14 -27 -12 -13 -15
-83 -17 -391 l-2 -375 58 -3 c39 -2 61 1 66 10 14 22 -11 39 -47 32 -29 -5
-34 -3 -34 13 0 19 4 19 55 10 30 -5 62 -7 70 -3 14 5 14 51 1 277 -3 36 -1
71 3 78 10 16 128 23 155 9 18 -10 19 -20 12 -183 l-6 -172 57 -6 c32 -3 61
-3 65 1 4 4 9 175 10 380 3 370 3 373 -18 378 -11 3 -40 4 -65 2 l-44 -3 0
-147 c0 -85 -4 -150 -10 -155 -5 -5 -43 -7 -84 -5 l-74 4 4 151 4 152 -55 2
c-30 2 -63 -2 -72 -8z m1 -541 c-3 -101 -5 -60 -5 142 0 202 2 243 5 143 4
-79 4 -207 0 -285z"/>
<path d="M6580 8868 c-23 -8 -33 -40 -26 -76 3 -15 2 -40 -3 -57 l-8 -30 -7
40 c-12 65 -15 72 -26 55 -14 -22 -12 -64 5 -86 14 -19 20 -99 9 -128 -9 -24
-24 -9 -24 24 0 16 -4 31 -9 34 -17 11 -21 -44 -5 -82 16 -41 16 -127 0 -127
-5 0 -14 18 -21 40 l-11 40 -5 -38 c-3 -23 0 -46 8 -57 17 -24 14 -132 -3
-137 -6 -2 -15 15 -20 39 l-8 43 -4 -40 c-2 -22 2 -56 9 -77 12 -38 6 -88 -11
-88 -6 0 -10 11 -10 25 0 14 -4 25 -10 25 -5 0 -10 -17 -10 -37 0 -21 -7 -51
-15 -67 -24 -46 -14 -56 60 -56 50 0 67 4 72 15 8 22 -1 28 -44 31 -21 2 -41
3 -45 3 -5 1 -8 6 -8 11 0 7 24 8 64 5 78 -7 81 -3 85 100 1 39 7 74 12 79 5
5 35 12 68 14 71 5 72 3 91 -110 11 -69 15 -78 34 -78 12 0 38 -3 59 -6 35 -6
37 -5 37 20 0 14 -6 52 -14 84 -15 61 -35 154 -61 292 -9 47 -22 112 -30 145
-7 33 -19 93 -25 132 -7 40 -17 76 -23 80 -15 10 -102 10 -127 1z m73 -215
c13 -46 28 -154 30 -208 l2 -60 -41 -3 c-63 -5 -70 11 -51 111 9 45 19 103 22
130 6 48 29 65 38 30z"/>
<path d="M6987 8873 c-4 -3 -8 -124 -8 -267 -2 -296 -8 -402 -26 -399 -14 3
-29 -135 -16 -148 6 -6 37 -9 69 -7 46 2 60 7 62 20 3 13 -6 17 -39 20 -25 2
-44 9 -47 17 -3 10 9 12 59 10 l64 -4 -3 80 c-1 44 -5 105 -8 135 -6 70 5 89
40 71 13 -8 27 -25 31 -39 3 -14 24 -61 46 -106 21 -44 39 -88 39 -98 0 -24
25 -35 103 -43 76 -8 80 -5 43 53 -13 21 -46 81 -74 133 -27 52 -59 110 -71
129 -11 19 -24 42 -27 50 -4 8 -13 22 -21 32 -13 14 -11 21 13 60 16 23 39 63
51 88 25 48 30 56 81 136 48 77 45 86 -30 82 -62 -3 -63 -3 -83 -43 -28 -57
-62 -135 -71 -165 -17 -59 -55 -89 -68 -55 -3 8 1 68 9 132 11 92 12 119 2
125 -15 9 -111 11 -120 1z"/>
<path d="M7537 8868 c-7 -4 -7 -26 2 -76 8 -47 12 -165 10 -368 l-2 -299 159
-6 c87 -4 163 -3 167 1 5 4 7 25 5 46 l-3 39 -105 5 -105 5 0 130 0 130 75 0
75 0 3 39 c2 21 -2 44 -8 50 -6 6 -41 11 -78 11 l-67 0 -3 80 c-2 44 0 91 3
104 6 23 9 23 73 18 37 -2 74 -8 83 -11 10 -4 23 0 33 9 18 19 22 80 5 91 -15
9 -307 11 -322 2z"/>
<path d="M282 8838 c4 -43 33 -46 33 -3 0 21 -5 31 -18 33 -15 3 -18 -2 -15
-30z"/>
<path d="M665 8860 c-3 -5 -1 -18 5 -29 6 -13 10 -144 10 -365 l0 -346 103 -2
c157 -3 165 -2 211 36 100 82 101 269 2 337 -42 28 -44 41 -12 66 72 57 74
195 4 265 -40 40 -73 48 -197 48 -67 0 -122 -4 -126 -10z m239 -105 c22 -20
26 -32 26 -80 0 -48 -4 -60 -27 -81 -21 -20 -36 -24 -67 -22 l-41 3 -3 80 c-4
114 0 125 47 125 27 0 46 -7 65 -25z m13 -312 c30 -32 33 -42 33 -95 0 -52 -4
-65 -31 -100 -30 -37 -34 -39 -78 -36 l-46 3 -3 125 c-1 69 0 131 3 139 10 26
86 4 122 -36z"/>
<path d="M840 8717 c0 -7 4 -17 9 -22 5 -6 11 -21 13 -35 5 -37 22 -30 26 10
3 24 -2 38 -14 47 -23 17 -34 17 -34 0z"/>
<path d="M834 8429 c-3 -6 7 -25 24 -42 16 -18 33 -48 36 -69 10 -54 26 -47
26 11 0 42 -5 54 -31 80 -33 33 -44 37 -55 20z"/>
<path d="M617 8833 c-3 -5 -5 -169 -5 -366 -1 -197 -3 -366 -7 -376 -11 -36
16 -43 161 -37 75 3 142 10 147 15 16 16 -8 21 -138 23 l-120 3 0 373 c0 343
-1 372 -17 372 -9 0 -19 -3 -21 -7z"/>
<path d="M1402 8538 c2 -214 6 -282 16 -286 9 -3 12 58 12 282 0 249 -2 286
-15 286 -13 0 -15 -36 -13 -282z"/>
<path d="M1675 8809 c-3 -8 -4 -181 -3 -384 l3 -370 70 0 c56 0 70 3 73 16 2
13 -8 17 -48 21 -28 3 -54 8 -58 12 -4 4 -8 164 -10 354 -2 312 -9 397 -27
351z"/>
<path d="M2748 8465 c-1 -195 -2 -367 -2 -382 l-1 -28 155 -3 c168 -3 200 1
200 23 0 12 -28 15 -157 17 l-158 3 -3 363 c-2 313 -4 362 -17 362 -13 0 -15
-48 -17 -355z"/>
<path d="M3202 8808 c-7 -10 -10 -126 -8 -383 l3 -370 61 -3 c50 -2 64 0 68
13 9 22 1 27 -48 29 l-43 1 -3 355 c-1 195 -6 358 -11 363 -4 4 -13 2 -19 -5z"/>
<path d="M6112 8718 c2 -70 7 -103 16 -106 9 -3 12 22 12 102 0 89 -3 106 -15
106 -13 0 -15 -16 -13 -102z"/>
<path d="M6923 8743 c4 -38 7 -142 8 -233 0 -96 4 -157 9 -145 4 11 8 116 9
233 1 191 0 212 -15 212 -15 0 -16 -9 -11 -67z"/>
<path d="M7473 8433 l5 -378 171 -3 c112 -2 171 1 171 8 0 5 1 13 3 18 1 4
-65 9 -148 12 l-150 5 -8 55 c-5 30 -7 191 -5 358 l3 302 -23 0 -23 0 4 -377z"/>
<path d="M2450 8737 c0 -7 5 -18 12 -25 7 -7 15 -33 18 -60 l5 -47 68 0 c69 0
99 18 37 23 -74 5 -80 9 -80 51 0 41 -20 71 -46 71 -8 0 -14 -6 -14 -13z"/>
<path d="M2980 8740 c-11 -7 -8 -11 15 -20 39 -15 79 -9 83 13 3 14 -4 17 -40
17 -24 0 -50 -4 -58 -10z"/>
<path d="M5299 8723 c-16 -41 -4 -148 21 -188 22 -36 166 -175 181 -175 5 0 9
-4 9 -9 0 -18 45 -80 59 -81 32 -1 -21 94 -94 165 -101 100 -145 176 -145 254
0 58 -15 75 -31 34z"/>
<path d="M5543 8742 c-9 -6 -7 -16 7 -40 11 -18 20 -41 20 -52 0 -24 25 -38
76 -42 29 -2 39 1 39 12 0 11 -11 15 -40 15 -37 0 -40 2 -45 31 -7 40 -41 86
-57 76z"/>
<path d="M7710 8735 c0 -8 14 -17 35 -21 42 -7 65 0 65 21 0 11 -12 15 -50 15
-37 0 -50 -4 -50 -15z"/>
<path d="M8153 8743 c-8 -3 -6 -14 8 -36 10 -18 19 -42 19 -53 0 -30 18 -42
70 -46 35 -2 45 0 45 12 0 11 -9 14 -34 12 -37 -3 -51 9 -51 45 0 26 -40 72
-57 66z"/>
<path d="M3747 8733 c-4 -3 -7 -40 -7 -80 0 -53 5 -84 19 -112 19 -36 165
-181 183 -181 4 0 8 -4 8 -9 0 -18 45 -80 59 -81 35 -1 -17 86 -108 180 -97
101 -131 161 -131 234 0 52 -7 66 -23 49z"/>
<path d="M7906 8701 c-9 -57 4 -131 30 -172 12 -19 57 -67 100 -105 94 -82
102 -91 115 -126 7 -17 18 -28 29 -28 18 0 18 2 4 35 -16 38 -26 51 -146 183
-68 74 -98 137 -98 203 0 62 -24 69 -34 10z"/>
<path d="M230 8624 c0 -9 5 -14 12 -12 18 6 21 28 4 28 -9 0 -16 -7 -16 -16z"/>
<path d="M2431 8422 c-1 -26 4 -44 12 -46 59 -16 72 -23 69 -40 -5 -27 7 -66
19 -66 7 0 9 17 4 53 -4 28 -9 54 -11 56 -1 2 -17 6 -35 10 -25 5 -35 14 -45
41 l-12 35 -1 -43z"/>
<path d="M2967 8444 c-11 -12 3 -24 29 -24 15 0 24 6 24 15 0 15 -40 21 -53 9z"/>
<path d="M6057 8444 c-11 -12 3 -24 29 -24 l24 0 0 -185 0 -185 64 0 c44 0 67
5 76 15 10 12 8 16 -13 24 -14 5 -34 7 -46 4 -45 -12 -51 8 -51 173 0 125 -3
155 -16 168 -15 16 -55 22 -67 10z"/>
<path d="M7700 8435 c0 -10 10 -15 30 -15 20 0 30 5 30 15 0 10 -10 15 -30 15
-20 0 -30 -5 -30 -15z"/>
<path d="M1890 8314 c0 -17 3 -33 6 -37 3 -3 23 -55 43 -114 l37 -108 72 -3
c45 -2 72 1 72 8 0 5 0 13 0 18 0 4 -21 9 -47 12 l-48 5 -50 100 c-27 56 -58
112 -67 125 l-18 24 0 -30z"/>
<path d="M6943 8300 c0 -25 2 -35 4 -22 2 12 2 32 0 45 -2 12 -4 2 -4 -23z"/>
<path d="M3417 8324 c-13 -14 -7 -46 30 -156 41 -121 41 -121 133 -116 42 2
56 7 58 20 3 14 -6 17 -49 20 l-53 3 -32 65 c-18 36 -35 72 -38 80 -3 8 -10
22 -15 30 -5 8 -13 25 -18 38 -4 13 -12 20 -16 16z"/>
<path d="M7135 8257 c-4 -9 -3 -23 3 -30 10 -12 35 -74 53 -134 12 -39 31 -45
114 -41 48 2 60 7 63 21 3 14 -5 17 -51 17 -61 0 -76 12 -118 93 -13 26 -32
57 -41 69 -15 21 -17 21 -23 5z"/>
<path d="M6605 8250 c3 -5 14 -10 24 -10 14 0 21 -13 30 -57 6 -32 12 -74 13
-93 l3 -35 71 -3 c55 -2 74 1 84 13 19 23 6 29 -58 29 l-57 1 -3 35 c-1 19 -9
49 -17 65 -7 17 -16 38 -19 48 -4 12 -16 17 -41 17 -22 0 -34 -4 -30 -10z"/>
<path d="M0 7756 l0 -53 68 -6 c38 -4 2063 -7 4500 -7 l4432 0 0 60 0 60
-4500 0 -4500 0 0 -54z"/>
<path d="M2990 412 c-56 -6 -74 -15 -122 -60 -60 -56 -82 -100 -68 -136 12
-32 79 -99 122 -123 31 -17 108 -18 1573 -18 l1540 0 42 22 c53 29 113 106
113 145 0 56 -77 140 -149 163 -22 7 -2991 14 -3051 7z m3101 -128 c30 -27 24
-71 -12 -93 -31 -19 -77 -19 -1581 -20 -1109 0 -1556 3 -1573 11 -14 6 -32 22
-41 36 -13 20 -14 28 -4 48 7 13 24 27 37 31 12 4 728 7 1589 6 1453 -2 1568
-4 1585 -19z"/>
</g>
</svg>
