<?xml version="1.0" standalone="no"?>
<!DOCTYPE svg PUBLIC "-//W3C//DTD SVG 20010904//EN"
 "http://www.w3.org/TR/2001/REC-SVG-20010904/DTD/svg10.dtd">
<svg version="1.0" xmlns="http://www.w3.org/2000/svg"
 width="500.000000pt" height="300.000000pt" viewBox="0 0 900.000000 375.000000"
 preserveAspectRatio="xMidYMid meet">
<metadata>
Created by potrace 1.10, written by Peter Selinger 2001-2011
</metadata>
<g transform="translate(0.000000,375.000000) scale(0.100000,-0.100000)"
fill="#fafafa" stroke="none">
<path d="M2550 3706 c0 -25 5 -48 10 -51 6 -4 10 13 10 44 0 28 -4 51 -10 51
-5 0 -10 -20 -10 -44z"/>
<path d="M4780 3735 c0 -8 5 -15 10 -15 6 0 10 7 10 15 0 8 -4 15 -10 15 -5 0
-10 -7 -10 -15z"/>
<path d="M4798 3645 c-8 -13 -4 -432 5 -441 4 -4 9 0 13 9 8 21 -9 445 -18
432z"/>
<path d="M3230 3555 c-8 -2 -62 -8 -120 -15 -58 -6 -123 -16 -145 -22 -22 -6
-65 -14 -95 -19 -30 -4 -75 -13 -100 -19 -177 -45 -350 -94 -410 -115 -19 -7
-51 -18 -70 -24 -19 -7 -48 -16 -65 -21 -39 -11 -91 -29 -133 -46 -18 -8 -41
-14 -50 -14 -10 0 -26 -6 -37 -14 -11 -7 -31 -16 -45 -19 -14 -3 -50 -15 -80
-27 -30 -12 -69 -25 -85 -29 -17 -4 -40 -13 -52 -19 -12 -7 -45 -12 -73 -12
-44 0 -56 -5 -81 -29 -16 -16 -29 -36 -29 -44 0 -19 59 -107 73 -107 6 0 19
-8 30 -17 38 -35 154 -21 260 33 16 8 33 14 38 14 5 0 37 13 71 28 35 16 83
37 108 47 60 23 109 44 143 61 16 8 36 14 46 14 9 0 25 6 36 13 11 8 29 17 40
20 11 3 47 15 80 27 33 12 78 25 100 30 22 4 54 13 70 18 17 6 57 17 90 25 33
8 83 21 110 27 48 12 134 29 255 50 124 22 224 30 400 30 154 0 193 -3 230
-18 112 -44 126 -60 115 -135 -8 -55 9 -72 62 -64 47 8 63 25 70 75 23 175
-273 324 -637 321 -58 -1 -112 -3 -120 -4z"/>
<path d="M6080 3417 c-34 -16 -60 -39 -60 -53 0 -7 -8 -27 -17 -46 -24 -48
-26 -52 -88 -199 -31 -74 -61 -138 -66 -143 -5 -6 -9 -17 -9 -25 0 -9 -13 -43
-29 -76 -55 -112 -60 -129 -54 -172 4 -31 0 -54 -17 -90 -12 -26 -26 -57 -30
-68 -5 -11 -22 -49 -38 -85 -16 -36 -46 -105 -67 -155 -75 -181 -97 -220 -128
-223 -15 -2 -42 6 -61 17 -84 52 -154 9 -239 -149 -16 -30 -53 -91 -81 -135
-29 -44 -61 -93 -72 -110 -39 -61 -45 -83 -31 -127 13 -45 47 -74 117 -102 82
-33 157 -66 242 -105 37 -17 72 -31 76 -31 5 0 30 -11 56 -25 53 -28 113 -32
154 -11 31 16 67 75 76 126 4 19 13 58 21 85 7 28 21 77 30 110 9 33 24 82 33
109 8 27 16 76 16 109 1 57 -1 60 -39 93 -22 19 -49 34 -61 34 -11 0 -31 11
-43 24 -19 20 -22 32 -17 59 4 19 13 40 21 47 8 7 15 16 15 21 0 5 14 40 31
77 17 37 35 76 40 87 40 97 92 221 99 234 4 9 16 35 25 57 9 23 29 51 44 61
29 22 37 36 106 195 7 18 28 63 44 99 17 36 31 68 31 72 0 4 11 30 24 59 14
29 37 82 51 118 15 36 31 69 36 75 15 15 10 99 -7 123 -18 26 -65 52 -91 51
-10 0 -29 -6 -43 -12z m2 -142 c34 -29 50 -31 68 -10 7 8 16 15 21 15 13 0
-25 -71 -50 -94 -12 -11 -21 -24 -21 -31 0 -6 -11 -17 -25 -23 -18 -9 -25 -19
-25 -41 0 -16 -9 -46 -19 -68 -10 -21 -24 -57 -31 -81 -6 -24 -20 -52 -31 -63
-10 -10 -19 -30 -19 -43 0 -13 -8 -34 -19 -47 -10 -13 -26 -39 -35 -56 -9 -18
-23 -33 -31 -33 -17 0 -21 35 -5 45 6 3 10 24 10 45 0 26 8 48 25 68 14 17 25
35 25 40 0 6 16 48 35 93 19 46 35 89 35 95 0 6 7 17 15 24 9 7 13 21 10 31
-4 10 1 21 10 26 12 7 16 25 16 71 0 34 3 62 6 62 3 0 18 -11 35 -25z m-494
-1243 c2 -12 7 -22 11 -22 4 0 22 -22 40 -49 17 -28 39 -52 49 -56 35 -12 57
-57 57 -120 0 -55 -7 -87 -53 -230 -16 -51 -74 -151 -98 -171 -17 -13 -91 -2
-137 21 -17 8 -38 15 -47 15 -9 0 -25 7 -36 15 -10 8 -25 15 -33 15 -7 0 -41
13 -75 28 -33 16 -77 36 -96 45 -19 9 -50 31 -68 50 l-32 33 21 68 c27 90 140
285 190 330 41 38 75 45 125 26 28 -11 117 3 139 22 16 15 40 4 43 -20z"/>
<path d="M5319 1950 c-14 -8 -27 -35 -67 -135 -9 -22 -22 -47 -29 -56 -7 -8
-13 -24 -13 -35 0 -11 -7 -29 -15 -40 -8 -10 -15 -31 -15 -45 0 -25 26 -59 46
-59 12 0 44 53 44 73 0 15 36 95 90 199 35 68 37 84 11 98 -24 12 -31 12 -52
0z"/>
<path d="M5457 1883 c-4 -3 -7 -15 -7 -26 0 -10 -6 -31 -14 -45 -8 -15 -24
-48 -35 -74 -12 -27 -27 -48 -35 -48 -25 0 -39 -30 -38 -86 0 -55 16 -83 49
-84 15 0 38 36 47 73 4 15 24 66 46 113 22 46 40 88 40 93 0 5 7 14 15 21 23
19 19 57 -7 64 -30 8 -53 8 -61 -1z"/>
<path d="M5612 1818 c-7 -7 -12 -17 -12 -24 0 -15 -73 -183 -111 -256 -16 -29
-18 -42 -9 -58 13 -24 13 -24 51 -5 28 15 41 37 91 155 6 14 14 32 19 40 5 8
14 26 19 40 6 14 15 33 20 43 8 14 6 25 -10 47 -23 32 -39 37 -58 18z"/>
<path d="M3176 3288 c-9 -38 -39 -127 -51 -153 -38 -83 -75 -166 -75 -169 0
-3 -14 -35 -31 -73 -17 -37 -38 -84 -46 -103 -8 -19 -41 -89 -72 -155 -32 -66
-66 -140 -76 -165 -9 -25 -23 -58 -30 -75 -48 -116 -57 -193 -27 -251 37 -72
87 -99 165 -89 43 6 57 16 136 91 49 46 91 84 95 84 3 0 6 -15 6 -34 0 -105
89 -166 197 -137 23 6 43 15 45 20 2 5 20 20 42 35 62 42 75 15 27 -56 -46
-69 -109 -212 -131 -298 -12 -45 -12 -112 -1 -142 16 -42 67 -88 115 -104 68
-23 79 -11 70 78 -7 76 6 119 79 263 14 28 47 92 73 144 27 51 54 96 62 98 7
3 27 -4 42 -16 53 -39 210 -37 319 4 124 46 196 89 278 165 30 28 60 50 68 50
18 0 20 -41 4 -57 -20 -20 -125 -227 -163 -323 -10 -25 -24 -58 -31 -75 -26
-60 -45 -131 -45 -162 0 -67 64 -151 132 -172 66 -22 95 14 68 85 -13 32 2 85
56 209 7 17 15 37 18 45 4 8 14 29 24 45 29 48 80 147 91 178 13 33 38 35 77
5 26 -21 39 -23 130 -22 109 1 170 17 288 75 186 90 345 243 479 460 26 42 47
83 47 91 0 8 -9 23 -20 33 -28 26 -62 13 -84 -32 -77 -161 -332 -445 -376
-418 -12 7 -13 35 -2 35 10 0 83 113 101 155 55 129 68 282 31 355 -24 47 -29
51 -106 71 -54 14 -65 14 -90 1 -46 -23 -103 -81 -151 -154 -31 -48 -50 -68
-65 -68 -15 0 -18 4 -13 18 17 37 17 80 0 105 -9 14 -46 40 -81 59 l-65 33
-20 -24 c-10 -13 -19 -38 -19 -56 0 -101 -135 -309 -303 -467 -63 -59 -86 -71
-108 -58 -9 6 -3 22 27 62 22 29 50 73 61 98 56 121 58 131 58 250 0 111 -1
118 -27 152 -26 35 -37 39 -126 55 -18 3 -46 0 -62 -7 -39 -16 -119 -103 -156
-167 -17 -32 -36 -53 -46 -53 -16 0 -17 7 -12 58 l6 58 -38 30 c-42 32 -106
64 -128 64 -8 0 -20 -27 -30 -72 -31 -135 -83 -244 -204 -429 -120 -184 -242
-282 -242 -194 0 30 16 69 128 305 27 58 61 130 76 161 41 89 37 109 -39 166
-69 52 -108 49 -120 -10 -8 -38 -79 -195 -119 -262 -83 -141 -263 -365 -292
-365 -5 0 -15 4 -23 9 -12 8 -13 16 -2 53 6 24 18 57 26 73 7 17 27 59 43 95
17 36 70 148 120 250 101 208 130 271 162 350 12 30 28 70 36 88 8 18 14 52
14 76 0 38 -5 48 -37 76 -57 50 -130 76 -137 48z m1047 -532 c3 -8 -8 -52 -24
-98 -17 -46 -34 -95 -39 -109 -4 -14 -12 -34 -18 -45 -5 -10 -27 -53 -47 -94
-92 -184 -195 -284 -273 -264 -30 8 -35 44 -12 76 11 15 20 31 20 37 0 5 4 11
8 13 7 2 44 59 107 166 6 9 33 50 60 90 28 41 55 81 60 90 21 35 70 98 97 125
31 30 53 35 61 13z m887 -2 c0 -22 -19 -92 -36 -131 -8 -17 -14 -35 -14 -40 0
-20 -67 -162 -112 -238 -42 -70 -104 -145 -151 -182 -19 -15 -79 -25 -93 -16
-28 19 -24 49 14 108 94 145 118 183 128 205 20 39 163 238 203 283 27 30 61
36 61 11z m-322 -140 c2 -11 -12 -43 -31 -70 -19 -27 -42 -65 -52 -84 -10 -19
-31 -50 -46 -68 -16 -18 -29 -44 -29 -57 0 -31 -38 -95 -56 -95 -8 0 -17 -7
-20 -15 -12 -30 -24 -14 -24 32 0 57 30 122 78 169 19 19 38 34 42 34 4 0 20
25 35 55 15 30 38 64 51 76 13 13 24 29 24 37 0 21 25 8 28 -14z m-903 -14 c9
-15 -33 -90 -51 -90 -11 0 -14 5 -9 18 4 9 9 26 12 37 9 40 13 45 27 45 8 0
18 -4 21 -10z m-85 -135 c0 -8 -4 -15 -10 -15 -5 0 -10 7 -10 15 0 8 5 15 10
15 6 0 10 -7 10 -15z m-94 -190 c-9 -7 -16 -24 -16 -38 0 -14 -4 -29 -10 -32
-5 -3 -10 -14 -10 -23 0 -9 -15 -27 -32 -39 -52 -37 -65 -10 -23 51 13 20 22
43 19 51 -4 9 1 18 12 22 11 3 30 15 44 25 17 14 26 16 29 7 2 -7 -4 -18 -13
-24z"/>
<path d="M6957 3283 c-4 -3 -7 -15 -7 -26 0 -17 -12 -44 -41 -97 -32 -56 -59
-120 -59 -137 0 -11 9 -32 20 -45 20 -26 104 -72 122 -66 5 2 18 29 28 59 11
31 40 91 65 133 26 44 45 89 45 106 0 26 -7 33 -50 55 -47 24 -109 33 -123 18z"/>
<path d="M3547 3196 c-37 -34 -77 -129 -77 -182 0 -53 23 -69 81 -60 95 15
164 79 164 152 0 48 -22 78 -74 100 -47 20 -64 18 -94 -10z"/>
<path d="M4802 3152 c-8 -14 -11 -35 -7 -54 10 -44 27 -20 23 33 -3 42 -4 43
-16 21z"/>
<path d="M2445 3093 c-9 -21 -28 -63 -44 -93 -16 -30 -40 -75 -52 -100 -42
-82 -69 -120 -84 -120 -23 0 -176 -75 -223 -109 -53 -39 -69 -74 -47 -107 8
-13 21 -24 27 -24 7 0 45 16 86 37 104 52 113 37 42 -72 -11 -16 -22 -37 -26
-45 -3 -8 -10 -22 -15 -30 -5 -8 -12 -22 -15 -30 -3 -8 -12 -28 -19 -45 -7
-16 -21 -50 -30 -75 -9 -25 -23 -60 -31 -78 -21 -49 -18 -151 6 -205 29 -66
101 -141 150 -157 70 -23 97 10 63 78 -11 20 -25 62 -32 92 -11 47 -11 63 2
105 25 83 71 182 170 365 19 36 51 97 71 136 l36 71 100 16 c54 10 140 17 190
17 102 0 124 12 135 74 15 76 -44 142 -114 130 -20 -4 -40 -10 -45 -15 -6 -5
-26 -9 -45 -9 -20 0 -49 -7 -65 -15 -15 -8 -30 -15 -32 -15 -12 0 -1 56 13 73
11 11 18 35 18 59 0 34 -6 45 -34 69 -30 24 -107 59 -133 59 -4 0 -15 -17 -23
-37z m87 -224 c0 -10 1 -24 2 -31 1 -12 -62 -30 -76 -22 -9 6 11 55 30 71 18
15 42 6 44 -18z"/>
<path d="M6523 2818 c-28 -29 -81 -91 -118 -138 -37 -47 -73 -85 -79 -85 -17
0 -19 45 -3 63 9 9 18 29 22 44 13 53 -54 125 -133 142 -39 9 -57 -10 -65 -69
-4 -27 -42 -119 -95 -228 -111 -227 -115 -238 -119 -317 -4 -59 -2 -69 25
-106 61 -84 197 -105 178 -28 -21 84 -21 85 47 185 66 99 180 254 219 301 28
32 68 47 68 25 0 -17 -14 -43 -53 -104 -15 -24 -27 -46 -27 -49 0 -4 -8 -25
-19 -48 -45 -99 -51 -120 -51 -177 0 -169 153 -233 284 -118 83 74 155 179
259 379 32 63 66 127 75 143 21 35 7 61 -35 65 -25 2 -35 -3 -52 -26 -12 -17
-21 -35 -21 -40 0 -10 -80 -168 -127 -252 -47 -83 -98 -154 -140 -199 -36 -37
-45 -42 -58 -31 -8 7 -15 19 -15 27 0 20 42 118 115 268 107 222 115 241 115
275 0 57 -82 150 -132 150 -7 0 -37 -24 -65 -52z m-293 -261 c0 -14 -20 -37
-32 -37 -12 0 -10 24 4 38 16 16 28 15 28 -1z"/>
<path d="M1377 2744 c-3 -10 -3 -46 1 -79 l8 -60 7 63 c7 64 -4 117 -16 76z"/>
<path d="M1380 2470 c0 -11 5 -20 10 -20 6 0 10 9 10 20 0 11 -4 20 -10 20 -5
0 -10 -9 -10 -20z"/>
<path d="M1509 1874 c-11 -14 -10 -16 9 -12 13 1 23 7 23 13 1 17 -17 16 -32
-1z"/>
<path d="M4801 1710 c0 -40 2 -42 11 -22 8 16 8 28 0 45 -9 19 -11 17 -11 -23z"/>
<path d="M2546 1672 c-8 -86 -8 -490 1 -520 16 -61 23 24 23 290 0 275 -10
373 -24 230z"/>
<path d="M7045 1720 c-4 -6 -3 -16 3 -22 6 -6 12 -6 17 2 4 6 3 16 -3 22 -6 6
-12 6 -17 -2z"/>
<path d="M296 1634 c-3 -9 -2 -23 4 -32 7 -14 9 -10 10 16 0 35 -5 41 -14 16z"/>
<path d="M4797 1573 c-3 -5 -1 -26 3 -48 l8 -40 1 48 c1 45 -2 56 -12 40z"/>
<path d="M4798 1344 c-4 -50 5 -200 11 -184 8 19 10 200 3 220 -7 19 -10 13
-14 -36z"/>
<path d="M4655 993 c-48 -11 -67 -22 -97 -55 -37 -40 -40 -48 -41 -118 -1 -79
3 -88 51 -135 44 -44 46 -48 28 -59 -61 -36 -106 -110 -106 -174 0 -44 30
-123 61 -163 48 -61 81 -70 258 -75 86 -2 171 -5 190 -7 19 -1 36 3 38 9 2 6
-16 35 -41 63 -86 102 -137 245 -96 272 8 5 33 9 55 8 76 -2 85 0 85 20 0 36
-24 44 -92 32 -70 -12 -97 -36 -98 -84 0 -16 -4 -27 -8 -25 -14 6 -82 85 -82
96 0 6 17 20 38 33 57 34 110 97 117 140 27 157 -95 261 -260 222z m110 -134
c18 -34 19 -59 4 -110 -15 -47 -49 -82 -73 -73 -26 10 -56 78 -56 127 0 85 90
125 125 56z m-5 -321 c0 -5 34 -53 74 -107 41 -54 72 -101 69 -105 -4 -3 -52
-6 -108 -6 -124 0 -145 12 -154 88 -9 72 0 109 38 148 l34 34 24 -22 c12 -12
23 -25 23 -30z"/>
<path d="M2395 987 c-49 -14 -74 -32 -101 -72 -19 -28 -21 -47 -22 -280 -1
-137 1 -266 4 -287 6 -42 64 -115 95 -120 26 -4 26 -22 -1 -26 -23 -4 -88 41
-97 67 -3 9 -12 23 -19 32 -11 12 -14 76 -16 275 -2 166 -7 258 -13 257 -6 -2
-11 -104 -13 -273 -2 -259 -1 -272 19 -312 12 -23 31 -50 43 -59 61 -51 226
-67 226 -23 0 7 25 26 56 41 56 27 84 57 105 109 14 36 21 314 8 315 -5 0 -48
1 -96 2 l-88 1 0 -50 0 -49 43 -3 42 -3 0 -78 c0 -58 -4 -82 -15 -91 -8 -7
-15 -18 -15 -25 0 -19 -53 -37 -84 -29 -16 4 -36 20 -47 38 -17 28 -19 51 -18
263 2 220 3 232 23 256 48 57 127 35 131 -37 3 -50 11 -56 76 -56 l59 0 0 39
c0 76 -52 152 -122 178 -41 15 -111 14 -163 0z m75 -797 c21 -7 19 -8 -17 -9
-24 -1 -43 4 -43 9 0 12 24 12 60 0z"/>
<path d="M3920 986 c-51 -16 -78 -37 -102 -74 -17 -28 -20 -45 -16 -101 6 -76
18 -100 94 -181 28 -30 69 -75 90 -100 21 -25 42 -47 47 -48 12 -6 37 -72 37
-101 0 -28 -24 -63 -55 -79 -43 -23 -95 30 -95 98 0 35 -3 37 -68 46 l-52 7 0
-59 c0 -39 6 -68 17 -84 30 -46 67 -80 85 -80 10 0 21 -6 24 -14 3 -8 28 -16
60 -20 46 -5 61 -2 103 20 28 14 61 41 75 59 22 29 26 44 26 105 0 86 -10 103
-148 262 -54 62 -104 123 -110 135 -21 38 -15 80 14 102 48 38 97 21 110 -37
14 -69 19 -73 82 -70 l57 3 -4 55 c-7 124 -139 200 -271 156z"/>
<path d="M5480 986 c-89 -29 -126 -84 -117 -173 7 -76 27 -114 102 -193 85
-89 138 -151 153 -177 27 -50 8 -114 -43 -141 -42 -22 -95 35 -95 104 0 29 -4
31 -68 40 l-52 7 0 -59 c0 -39 6 -68 17 -84 30 -46 67 -80 85 -80 10 0 21 -6
24 -14 3 -8 29 -16 65 -20 51 -6 64 -4 88 13 16 12 34 21 39 21 6 0 24 17 41
37 28 34 31 44 31 106 0 96 -20 130 -170 295 -105 116 -121 157 -75 206 47 51
100 26 120 -57 l10 -42 58 -3 57 -3 0 54 c0 43 -6 62 -28 93 -36 49 -48 58
-98 72 -50 14 -97 14 -144 -2z"/>
<path d="M8092 985 c-52 -16 -68 -28 -100 -79 -46 -73 -15 -180 79 -277 29
-30 79 -85 111 -123 53 -63 58 -73 58 -116 0 -36 -5 -51 -22 -67 -37 -32 -46
-35 -77 -18 -25 12 -31 23 -36 62 -4 27 -8 53 -10 59 -4 14 -99 29 -115 19
-18 -11 -11 -95 12 -134 31 -53 59 -81 80 -81 10 0 21 -6 24 -14 3 -8 29 -16
65 -20 53 -5 66 -3 103 19 23 13 55 38 71 55 28 29 30 36 29 108 -1 97 -20
129 -179 300 -73 78 -84 97 -85 143 0 45 17 67 57 75 26 5 36 2 57 -21 15 -16
26 -41 28 -63 l3 -37 54 -3 c30 -2 58 1 64 7 5 5 7 32 3 65 -15 118 -141 183
-274 141z"/>
<path d="M5938 983 c-53 -4 -58 -6 -58 -27 0 -15 -7 -26 -20 -29 -18 -5 -19
-18 -22 -378 -2 -206 1 -379 5 -386 13 -18 108 -11 121 9 14 23 1 33 -42 33
-28 0 -38 5 -40 18 -3 15 0 17 15 9 10 -6 41 -12 68 -13 l50 -4 0 185 0 185
77 3 c66 2 78 0 86 -15 5 -11 6 -83 2 -173 -4 -85 -4 -159 1 -164 10 -11 99
-25 116 -19 10 4 13 84 15 354 1 192 2 361 2 377 1 27 0 27 -72 30 l-73 3 3
-153 3 -153 -73 0 c-41 0 -77 5 -80 10 -4 6 -7 75 -7 154 0 89 -4 145 -10 146
-5 0 -36 -1 -67 -2z m-40 -413 c0 -135 -4 -258 -8 -275 -4 -16 -8 112 -8 285
0 192 4 299 9 275 4 -22 8 -150 7 -285z"/>
<path d="M7294 983 c-36 -4 -42 -8 -57 -42 -9 -21 -17 -41 -17 -44 0 -4 -11
-29 -24 -56 -13 -27 -27 -62 -31 -78 -9 -37 -23 -53 -46 -53 -22 0 -23 15 -10
105 5 33 12 84 15 113 l7 52 -76 0 -75 0 0 -30 c0 -17 -7 -33 -17 -39 -14 -7
-15 -13 -6 -34 7 -15 10 -54 7 -98 -12 -178 -20 -605 -12 -615 9 -12 88 -11
107 0 26 16 10 35 -31 38 -23 2 -43 8 -45 15 -3 8 16 11 64 10 l68 -2 -3 30
c-1 17 -5 81 -8 143 l-7 112 25 0 c26 0 48 -17 48 -37 0 -10 71 -170 99 -223
5 -8 26 -18 47 -22 21 -5 54 -11 72 -14 28 -6 32 -4 32 16 0 12 -9 34 -19 48
-10 15 -38 64 -62 110 -68 128 -93 174 -116 211 -22 35 -19 66 11 101 8 8 31
47 51 85 21 39 55 96 75 127 39 59 38 80 -4 76 -12 -1 -39 -3 -62 -5z"/>
<path d="M280 951 c0 -33 16 -49 32 -33 14 14 1 62 -17 62 -10 0 -15 -10 -15
-29z"/>
<path d="M665 970 c-3 -5 -3 -16 2 -22 4 -7 10 -172 13 -367 l5 -353 135 -1
c128 -1 137 0 168 23 76 56 105 191 62 286 -11 24 -24 44 -28 44 -4 1 -20 11
-36 24 l-29 24 37 43 c44 51 50 72 44 144 -5 64 -40 115 -98 145 -32 17 -59
20 -154 20 -66 0 -117 -4 -121 -10z m218 -96 c43 -22 47 -30 47 -95 0 -47 -4
-59 -26 -78 -19 -17 -35 -21 -67 -19 l-42 3 -3 82 c-4 120 17 145 91 107z
m-23 -284 c11 0 35 -16 55 -35 33 -34 35 -39 35 -103 0 -64 -2 -70 -32 -99
-37 -34 -101 -52 -114 -31 -5 7 -10 67 -11 132 -3 122 5 153 34 141 8 -3 23
-5 33 -5z"/>
<path d="M840 815 c0 -8 4 -15 9 -15 5 0 11 -12 13 -27 3 -32 21 -38 26 -10 7
34 -7 67 -28 67 -11 0 -20 -7 -20 -15z"/>
<path d="M836 532 c-3 -5 8 -22 24 -37 17 -16 30 -39 30 -51 0 -29 10 -54 21
-54 14 0 10 78 -6 109 -18 35 -56 53 -69 33z"/>
<path d="M1197 663 c4 -257 8 -325 20 -353 17 -39 58 -80 80 -80 7 0 16 -6 19
-14 3 -8 28 -17 62 -21 50 -6 62 -4 107 20 27 16 60 41 73 57 23 28 24 31 27
341 2 171 5 323 7 337 3 25 2 25 -67 25 l-69 0 4 -90 c3 -49 5 -193 5 -318 l0
-228 -25 -19 c-32 -25 -62 -25 -91 -1 l-24 19 0 269 c0 147 2 291 5 318 l5 50
-71 3 -71 3 4 -318z"/>
<path d="M1737 608 c2 -287 6 -374 15 -379 13 -7 65 -12 102 -10 16 1 17 7 12
48 -3 27 -9 96 -12 155 l-7 107 28 7 c22 5 31 2 46 -17 10 -13 21 -36 24 -52
4 -15 10 -27 15 -27 5 0 11 -13 15 -30 4 -16 11 -32 16 -35 5 -4 9 -13 9 -22
0 -8 6 -29 14 -46 8 -18 16 -41 18 -51 2 -15 18 -22 68 -32 39 -8 68 -10 73
-5 6 6 -4 39 -26 83 -65 136 -107 228 -107 238 0 5 10 15 23 21 56 30 86 102
87 202 0 94 -21 143 -82 187 l-41 30 -146 0 -146 0 2 -372z m230 270 c56 -24
68 -46 68 -123 0 -90 -20 -115 -95 -123 -70 -7 -79 4 -78 92 0 40 -3 82 -6 94
-4 13 -1 31 10 47 18 28 55 33 101 13z"/>
<path d="M1930 829 c-13 -8 -13 -11 1 -22 22 -17 39 -52 39 -81 0 -35 18 -42
26 -10 15 60 -30 137 -66 113z"/>
<path d="M2809 973 c0 -5 1 -82 2 -173 1 -91 3 -256 3 -368 l1 -202 165 -3
165 -2 0 45 0 45 -108 3 -108 3 3 132 3 132 40 -1 c22 -1 54 -3 70 -5 l30 -4
0 55 0 55 -72 -3 -73 -4 0 96 c0 93 1 97 25 106 13 5 43 6 67 1 42 -8 41 -10
-8 -26 -8 -3 -14 -13 -12 -22 2 -13 13 -18 38 -18 32 0 35 2 32 28 -3 24 0 27
26 27 34 0 42 14 42 71 l0 39 -165 0 c-91 0 -165 -3 -166 -7z"/>
<path d="M3258 608 c2 -205 6 -376 10 -380 4 -3 30 -8 57 -10 l50 -3 -4 156
c-3 113 0 158 8 164 16 9 61 -3 61 -17 0 -6 10 -32 21 -57 12 -25 25 -55 30
-66 65 -163 62 -160 131 -174 33 -7 62 -10 65 -7 9 8 -8 64 -23 77 -8 6 -14
18 -14 25 0 7 -9 30 -19 51 -74 147 -85 187 -52 198 31 9 66 65 80 126 11 46
11 69 1 125 -14 75 -24 92 -84 135 -39 29 -41 29 -180 29 l-141 0 3 -372z
m229 266 c35 -14 45 -23 53 -53 13 -46 13 -72 -1 -126 -9 -35 -17 -46 -42 -54
-40 -15 -104 -14 -113 1 -11 18 -14 198 -3 225 10 28 44 30 106 7z"/>
<path d="M3430 820 c0 -5 9 -14 19 -20 15 -7 21 -23 23 -58 4 -59 22 -62 26
-3 5 70 -3 91 -38 91 -17 0 -30 -4 -30 -10z"/>
<path d="M6562 953 c-20 -22 -22 -30 -13 -50 12 -26 14 -66 5 -100 -10 -37
-24 -15 -24 38 0 27 -4 49 -9 49 -22 0 -24 -89 -3 -127 20 -35 13 -113 -9
-113 -5 0 -9 18 -9 39 0 22 -4 42 -9 45 -15 10 -21 -37 -10 -79 19 -72 21 -94
15 -130 -9 -44 -26 -46 -26 -2 0 40 -14 66 -23 43 -8 -19 2 -74 14 -82 12 -7
11 -95 0 -113 -10 -15 -15 -8 -26 34 -7 30 -7 30 -16 6 -7 -16 -5 -33 6 -54
11 -21 13 -45 9 -78 -7 -52 0 -58 68 -61 54 -2 58 5 58 91 0 51 4 82 13 89 16
12 112 21 128 11 18 -11 39 -79 39 -130 l0 -47 48 -7 c37 -6 43 -9 27 -16 -11
-4 -34 -8 -52 -8 -37 -1 -53 20 -53 70 0 44 -38 99 -69 99 l-23 0 23 -19 c18
-15 23 -30 26 -82 7 -116 2 -110 91 -107 68 3 77 5 80 23 2 11 11 25 19 32 15
11 14 21 -5 105 -11 51 -28 129 -37 173 -31 157 -46 231 -56 270 -6 22 -15 75
-20 118 -5 43 -11 82 -14 88 -4 5 -36 9 -73 9 -60 0 -69 -3 -90 -27z m112
-246 c19 -135 23 -202 13 -210 -7 -4 -30 -6 -52 -5 -40 3 -40 3 -38 43 3 63
22 218 28 235 9 22 43 -22 49 -63z"/>
<path d="M7544 934 c3 -26 6 -194 6 -374 l0 -328 143 -5 c78 -3 151 -7 162 -9
18 -3 20 3 23 50 l3 52 -105 0 -105 0 -3 113 c-2 61 0 123 5 136 7 21 11 22
50 17 97 -14 92 -17 95 42 2 37 -1 52 -10 53 -7 0 -41 0 -74 -1 l-62 -1 -4 83
c-2 46 -2 89 0 96 7 22 36 31 80 25 41 -6 59 -23 24 -23 -10 0 -27 -6 -37 -14
-18 -13 -18 -14 3 -25 11 -6 32 -11 46 -11 20 0 25 6 28 28 2 19 9 28 26 30
28 4 44 34 40 75 l-3 32 -169 3 -169 2 7 -46z"/>
<path d="M619 948 c-1 -2 -3 -179 -4 -395 -2 -280 1 -393 9 -396 22 -8 278 11
287 20 20 20 -14 27 -136 27 l-120 1 -2 370 c-2 324 -4 370 -18 373 -8 2 -16
2 -16 0z"/>
<path d="M1134 917 c-3 -9 -4 -154 -1 -324 5 -330 9 -355 58 -399 38 -33 111
-55 171 -52 39 2 53 7 53 18 0 10 -13 16 -40 18 -22 2 -44 8 -50 13 -5 5 -21
9 -35 9 -30 0 -100 63 -100 89 0 9 -7 25 -16 36 -12 17 -15 65 -14 304 1 187
-2 287 -9 294 -7 7 -12 6 -17 -6z"/>
<path d="M1406 923 c-8 -8 -8 -536 0 -557 18 -47 24 23 24 274 0 253 -4 303
-24 283z"/>
<path d="M2757 923 c-8 -13 -11 -753 -3 -760 8 -9 322 -7 336 2 5 3 10 13 10
20 0 12 -30 15 -157 17 l-158 3 -3 355 c-2 318 -7 392 -25 363z"/>
<path d="M7495 920 c-9 -14 -9 -749 0 -758 8 -8 311 -5 325 3 5 3 10 13 10 20
0 12 -29 15 -152 17 l-153 3 -3 355 c-2 326 -7 392 -27 360z"/>
<path d="M1680 918 c-6 -183 -3 -751 4 -758 6 -6 36 -10 67 -10 43 0 58 4 63
16 11 28 7 31 -44 36 -28 3 -54 8 -58 12 -4 4 -8 164 -9 354 -2 227 -6 348
-13 350 -5 2 -10 2 -10 0z"/>
<path d="M3198 548 c-2 -205 1 -379 6 -386 12 -18 101 -16 116 3 19 23 -2 40
-48 40 l-37 0 -3 358 c-2 303 -4 357 -17 357 -12 0 -15 -56 -17 -372z"/>
<path d="M6111 848 c1 -81 11 -138 21 -123 3 6 8 51 9 100 3 78 1 90 -14 93
-15 3 -17 -6 -16 -70z"/>
<path d="M2450 847 c0 -7 5 -18 12 -25 7 -7 15 -33 18 -60 l5 -47 73 -3 c57
-2 73 0 70 10 -3 8 -27 15 -59 18 l-54 5 -6 48 c-5 46 -19 67 -46 67 -7 0 -13
-6 -13 -13z"/>
<path d="M3746 843 c-3 -3 -6 -39 -6 -79 0 -54 5 -84 20 -112 19 -37 118 -139
166 -173 11 -7 36 -36 55 -63 19 -27 40 -51 47 -54 17 -5 15 23 -3 38 -8 7
-15 18 -15 25 0 13 -11 27 -108 134 -107 118 -132 162 -132 233 0 44 -10 65
-24 51z"/>
<path d="M3980 842 c0 -5 7 -17 15 -28 8 -10 15 -30 15 -44 1 -42 14 -52 68
-54 64 -1 73 17 12 24 -42 5 -45 7 -48 38 -2 18 -12 42 -23 53 -20 20 -39 25
-39 11z"/>
<path d="M5296 810 c-8 -51 2 -115 25 -161 15 -31 121 -139 170 -172 9 -7 31
-33 48 -59 35 -51 49 -64 59 -53 15 15 -43 97 -145 204 -77 81 -123 169 -123
234 0 60 -25 65 -34 7z"/>
<path d="M5540 842 c0 -5 7 -17 15 -28 8 -10 15 -30 15 -44 0 -14 4 -30 8 -37
10 -16 107 -28 116 -15 9 15 -14 27 -54 27 -33 0 -35 2 -38 35 -2 19 -12 43
-22 53 -20 18 -40 23 -40 9z"/>
<path d="M8150 843 c0 -5 7 -17 15 -27 8 -11 15 -32 15 -47 0 -37 21 -51 80
-53 63 -1 66 17 3 24 -48 5 -48 5 -51 44 -3 39 -23 65 -49 66 -7 0 -13 -3 -13
-7z"/>
<path d="M7917 833 c-16 -15 -7 -134 13 -172 18 -36 139 -162 188 -196 11 -9
31 -36 43 -61 27 -53 37 -61 46 -38 11 29 -21 75 -136 199 -87 93 -119 152
-128 233 -5 40 -12 50 -26 35z"/>
<path d="M240 730 c0 -5 7 -10 15 -10 8 0 15 5 15 10 0 6 -7 10 -15 10 -8 0
-15 -4 -15 -10z"/>
<path d="M2431 523 c-1 -41 0 -41 38 -48 39 -6 40 -8 43 -53 2 -28 8 -47 17
-50 11 -4 13 6 8 51 -7 70 -11 77 -46 77 -31 0 -46 13 -54 45 -2 11 -5 1 -6
-22z"/>
<path d="M2975 549 c-9 -13 -5 -16 20 -21 12 -2 21 3 23 15 4 19 -32 25 -43 6z"/>
<path d="M6067 553 c-11 -10 3 -23 24 -23 23 0 22 7 19 -195 -2 -191 -3 -190
87 -178 43 6 59 13 61 26 3 13 -4 17 -32 17 -19 0 -46 4 -60 9 l-25 10 -3 160
c-2 88 -5 161 -8 164 -10 9 -57 16 -63 10z"/>
<path d="M7710 546 c0 -16 27 -29 41 -20 19 11 9 34 -16 34 -15 0 -25 -6 -25
-14z"/>
<path d="M1890 421 c0 -12 4 -29 9 -39 6 -9 24 -60 42 -112 17 -52 35 -99 39
-103 4 -5 36 -9 71 -10 59 -2 64 0 67 20 3 20 -2 22 -45 25 l-48 3 -50 101
c-27 55 -58 109 -67 118 -17 17 -18 16 -18 -3z"/>
<path d="M3415 427 c-4 -9 -5 -27 -2 -40 13 -53 70 -203 82 -217 9 -10 31 -15
67 -14 78 2 78 2 78 24 0 17 -7 20 -49 20 -54 0 -50 -4 -97 92 -12 24 -24 50
-28 58 -3 8 -10 22 -15 30 -5 8 -13 26 -19 40 -9 22 -11 23 -17 7z"/>
<path d="M3740 340 c0 -64 21 -121 56 -151 47 -40 202 -67 219 -38 10 15 2 20
-44 26 -23 3 -41 10 -41 14 0 5 -12 9 -27 9 -62 0 -133 85 -133 159 0 30 -4
41 -15 41 -12 0 -15 -13 -15 -60z"/>
<path d="M5300 332 c0 -87 26 -129 104 -166 58 -27 158 -36 171 -15 10 15 2
20 -44 26 -23 3 -41 10 -41 14 0 5 -13 9 -29 9 -58 0 -131 95 -131 169 0 21
-5 31 -15 31 -12 0 -15 -14 -15 -68z"/>
<path d="M7910 355 c0 -52 24 -120 54 -153 30 -34 102 -62 156 -62 87 0 110
24 35 36 -25 3 -48 10 -51 15 -3 5 -16 9 -30 9 -58 0 -134 98 -134 171 0 19
-5 29 -15 29 -11 0 -15 -12 -15 -45z"/>
<path d="M7156 323 c10 -40 38 -114 52 -140 10 -18 22 -22 79 -25 66 -3 83 3
83 30 0 8 -17 12 -54 12 -47 0 -56 3 -72 28 -31 46 -43 66 -55 95 -6 15 -17
27 -25 27 -11 0 -13 -7 -8 -27z"/>
<path d="M6381 224 c-15 -67 -10 -73 61 -72 32 1 53 7 64 19 24 27 8 41 -45
37 -44 -3 -46 -2 -47 25 -2 55 -20 50 -33 -9z"/>
</g>
</svg>
