<?xml version="1.0" encoding="iso-8859-1"?>
<!-- Uploaded to: SVG Repo, www.svgrepo.com, Generator: SVG Repo Mixer Tools -->
<svg fill="#FF0000" height="800px" width="800px" version="1.1" id="Layer_1" xmlns="http://www.w3.org/2000/svg" xmlns:xlink="http://www.w3.org/1999/xlink" viewBox="0 0 512 512" xml:space="preserve">
  <g>
    <g>
      <path d="M426.667,192.002H403.81c-2.976-20.811-10.241-40.235-20.873-57.352l19.709-59.126l39.106-39.106
        c8.331-8.331,8.331-21.839,0-30.17c-8.331-8.331-21.839-8.331-30.17,0l-42.667,42.667c-2.342,2.342-4.106,5.197-5.154,8.339
        l-13.436,40.308C324.61,76.585,291.778,64,256,64c-75.237,0-137.46,55.629-147.81,128.002H85.333
        c-11.782,0-21.333,9.551-21.333,21.333v64c0,11.782,9.551,21.333,21.333,21.333h25.178l39.236,196.182
        c1.994,9.972,10.75,17.15,20.919,17.15h170.667c10.169,0,18.925-7.178,20.919-17.15l39.236-196.182h25.178
        c11.782,0,21.333-9.551,21.333-21.333v-64C448,201.553,438.449,192.002,426.667,192.002z M256,106.667
        c51.611,0,94.652,36.642,104.534,85.333H151.466C161.348,143.308,204.389,106.667,256,106.667z M106.667,234.669h298.667v21.333
        h-21.258c-0.025,0-0.05-0.002-0.075-0.002H128c-0.025,0-0.05,0.002-0.075,0.002h-21.258V234.669z M323.844,469.333H188.156
        l-34.133-170.665h203.954L323.844,469.333z"/>
    </g>
  </g>
</svg>
